<svg xmlns="http://www.w3.org/2000/svg" width="1600" height="900" viewBox="0 0 1600 900" preserveAspectRatio="xMidYMid slice">
  <defs>
    <radialGradient id="r1" cx="70%" cy="20%" r="60%">
      <stop offset="0" stop-color="rgba(212,175,55,0.25)"/>
      <stop offset="1" stop-color="rgba(212,175,55,0)"/>
    </radialGradient>
    <radialGradient id="r2" cx="20%" cy="85%" r="65%">
      <stop offset="0" stop-color="rgba(64,123,255,0.22)"/>
      <stop offset="1" stop-color="rgba(64,123,255,0)"/>
    </radialGradient>
    <linearGradient id="bg" x1="0" x2="0" y1="0" y2="1">
      <stop offset="0" stop-color="#050b17"/>
      <stop offset="1" stop-color="#061326"/>
    </linearGradient>
    <linearGradient id="gold" x1="0" x2="1">
      <stop offset="0" stop-color="#fdebb5"/>
      <stop offset="1" stop-color="#d4af37"/>
    </linearGradient>
  </defs>

  <rect width="1600" height="900" fill="url(#bg)"/>
  <rect width="1600" height="900" fill="url(#r1)"/>
  <rect width="1600" height="900" fill="url(#r2)"/>

  <!-- subtle grid -->
  <g opacity="0.10" stroke="rgba(245,241,232,0.22)" stroke-width="1">
    <path d="M0 120H1600M0 260H1600M0 400H1600M0 540H1600M0 680H1600M0 820H1600"/>
    <path d="M160 0V900M360 0V900M560 0V900M760 0V900M960 0V900M1160 0V900M1360 0V900"/>
  </g>

  <!-- premium strokes -->
  <g fill="none" stroke="url(#gold)" stroke-width="2.6" opacity="0.38">
    <path d="M-40 720 C 180 560, 420 860, 680 700 S 1160 520, 1640 680"/>
    <path d="M-60 520 C 220 360, 520 660, 820 520 S 1320 340, 1660 520"/>
    <path d="M-80 340 C 260 180, 600 480, 920 340 S 1440 180, 1680 360"/>
  </g>

  <!-- corner accents -->
  <g opacity="0.25" fill="url(#gold)">
    <circle cx="1480" cy="120" r="4"/>
    <circle cx="1520" cy="150" r="3"/>
    <circle cx="1460" cy="170" r="2.5"/>
    <circle cx="120" cy="780" r="3"/>
    <circle cx="160" cy="820" r="2.5"/>
    <circle cx="190" cy="770" r="2"/>
  </g>
</svg>